<svg xmlns="http://www.w3.org/2000/svg" width="10.192" height="94.808" viewBox="0 0 10.192 94.808"><path d="M.98-9.8H3.752v7.6H8.428V0H.98ZM14.308.2a5.861,5.861,0,0,1-2.793-.658,4.944,4.944,0,0,1-1.946-1.82A4.936,4.936,0,0,1,8.862-4.9a4.936,4.936,0,0,1,.707-2.618,4.944,4.944,0,0,1,1.946-1.82A5.861,5.861,0,0,1,14.308-10a5.861,5.861,0,0,1,2.793.658,4.944,4.944,0,0,1,1.946,1.82A4.936,4.936,0,0,1,19.754-4.9a4.936,4.936,0,0,1-.707,2.618A4.944,4.944,0,0,1,17.1-.462,5.861,5.861,0,0,1,14.308.2Zm0-2.3a2.625,2.625,0,0,0,1.344-.35,2.518,2.518,0,0,0,.952-.987,2.988,2.988,0,0,0,.35-1.463,2.988,2.988,0,0,0-.35-1.463,2.518,2.518,0,0,0-.952-.987,2.625,2.625,0,0,0-1.344-.35,2.625,2.625,0,0,0-1.344.35,2.518,2.518,0,0,0-.952.987,2.988,2.988,0,0,0-.35,1.463,2.988,2.988,0,0,0,.35,1.463,2.518,2.518,0,0,0,.952.987A2.625,2.625,0,0,0,14.308-2.1Zm9.674-5.558V-5.5h4.326V-3.36H23.982V0H21.21V-9.8H28.9v2.142Zm8.372.056h-3.01V-9.8h8.778v2.2h-3V0H32.354Zm6.8-2.2H41.93V0H39.158ZM51.422.2A9.06,9.06,0,0,1,49.112-.1a5.682,5.682,0,0,1-1.82-.784l.91-2.044a5.888,5.888,0,0,0,1.526.7,5.809,5.809,0,0,0,1.708.266q1.6,0,1.6-.8a.661.661,0,0,0-.455-.623,8.367,8.367,0,0,0-1.463-.427,13.963,13.963,0,0,1-1.848-.511,3.11,3.11,0,0,1-1.274-.875,2.364,2.364,0,0,1-.532-1.624,2.811,2.811,0,0,1,.49-1.617,3.279,3.279,0,0,1,1.463-1.141A6.022,6.022,0,0,1,51.8-10a8.42,8.42,0,0,1,1.9.217,5.831,5.831,0,0,1,1.652.637L54.5-7.084a5.705,5.705,0,0,0-2.716-.756,2.277,2.277,0,0,0-1.2.245.734.734,0,0,0-.378.637.632.632,0,0,0,.448.588,8.1,8.1,0,0,0,1.442.406,13.509,13.509,0,0,1,1.855.511,3.2,3.2,0,0,1,1.274.868,2.318,2.318,0,0,1,.539,1.617,2.757,2.757,0,0,1-.49,1.6A3.34,3.34,0,0,1,53.8-.231,5.946,5.946,0,0,1,51.422.2Zm10.094-10a5.589,5.589,0,0,1,2.31.441A3.426,3.426,0,0,1,65.338-8.1a3.455,3.455,0,0,1,.532,1.925,3.42,3.42,0,0,1-.532,1.918A3.443,3.443,0,0,1,63.826-3a5.589,5.589,0,0,1-2.31.441H59.808V0H57.036V-9.8Zm-.168,5.054a1.937,1.937,0,0,0,1.288-.371,1.314,1.314,0,0,0,.434-1.057,1.336,1.336,0,0,0-.434-1.064,1.912,1.912,0,0,0-1.288-.378h-1.54v2.87ZM73.29-1.9H69.146L68.376,0H65.548l4.326-9.8H72.6L76.944,0H74.06Zm-.812-2.044-1.26-3.136-1.26,3.136ZM82.474.2a5.8,5.8,0,0,1-2.765-.651,4.868,4.868,0,0,1-1.925-1.813,5,5,0,0,1-.7-2.632,5,5,0,0,1,.7-2.632,4.868,4.868,0,0,1,1.925-1.813A5.8,5.8,0,0,1,82.474-10,5.935,5.935,0,0,1,84.9-9.52a4.66,4.66,0,0,1,1.792,1.372l-1.764,1.6A2.9,2.9,0,0,0,82.614-7.7a2.851,2.851,0,0,0-1.421.35,2.429,2.429,0,0,0-.966.987A3.038,3.038,0,0,0,79.884-4.9a3.038,3.038,0,0,0,.343,1.463,2.429,2.429,0,0,0,.966.987,2.851,2.851,0,0,0,1.421.35,2.9,2.9,0,0,0,2.31-1.148l1.764,1.6A4.66,4.66,0,0,1,84.9-.28,5.935,5.935,0,0,1,82.474.2ZM95.788-2.142V0H87.92V-9.8h7.686v2.142H90.664v1.652h4.354v2.072H90.664v1.792Z" transform="translate(9.996 95.788) rotate(-90)" /></svg>